<?xml version="1.0" standalone="no"?>
<!DOCTYPE svg PUBLIC "-//W3C//DTD SVG 20010904//EN"
 "http://www.w3.org/TR/2001/REC-SVG-20010904/DTD/svg10.dtd">
<svg version="1.0" xmlns="http://www.w3.org/2000/svg"
 width="836.000000pt" height="150.000000pt" viewBox="0 0 836.000000 150.000000"
 preserveAspectRatio="xMidYMid meet">
<metadata>
Created by potrace 1.16, written by Peter Selinger 2001-2019
</metadata>
<g transform="translate(0.000000,150.000000) scale(0.100000,-0.100000)"
fill="#000000" stroke="none">
<path d="M375 1183 c-44 -25 -104 -59 -132 -75 -62 -34 -73 -48 -41 -49 l23 0
-23 -12 c-17 -8 -25 -8 -30 0 -9 14 -31 -2 -49 -35 -16 -27 -16 -35 -1 -26 8
5 9 2 5 -10 -4 -10 -1 -19 8 -22 8 -4 13 -9 10 -13 -5 -10 56 -8 72 2 6 4 14
3 18 -3 3 -5 -2 -10 -12 -11 -16 0 -16 -1 2 -9 11 -5 15 -9 8 -9 -13 -1 -11
-36 3 -37 5 0 27 -11 49 -25 22 -13 46 -22 53 -21 8 2 11 -1 7 -7 -3 -6 9 -17
29 -26 20 -8 52 -22 72 -30 39 -17 66 -9 84 25 13 24 13 40 0 20 -9 -13 -10
-13 -10 0 0 9 5 21 12 28 18 18 -24 56 -64 58 -18 1 -42 5 -53 9 -15 6 -17 5
-9 -4 6 -6 30 -15 55 -19 28 -6 43 -13 41 -21 -2 -9 3 -11 13 -8 17 7 21 -8 4
-19 -6 -3 -9 -17 -6 -30 2 -13 -1 -25 -7 -27 -8 -3 -11 8 -9 32 2 26 1 31 -5
17 -5 -11 -17 -21 -28 -22 -16 -2 -17 -1 -4 9 8 7 21 23 29 36 13 24 13 24
-23 18 -20 -3 -36 -2 -36 4 0 5 -11 9 -25 9 -14 0 -25 4 -25 9 0 18 29 32 57
26 l28 -6 -25 15 c-14 8 -29 12 -34 9 -5 -4 -6 -1 -2 5 3 6 2 13 -4 17 -5 3
-10 2 -10 -2 0 -12 -31 -30 -68 -38 -22 -4 -32 -3 -32 5 0 7 7 10 15 6 8 -3
15 0 15 7 0 7 12 13 26 13 28 2 41 10 31 20 -4 4 -13 1 -22 -6 -9 -7 -18 -10
-21 -7 -4 3 -24 -3 -45 -14 -33 -16 -39 -17 -39 -4 0 8 9 15 20 15 10 0 23 6
27 13 4 6 43 30 87 52 124 62 156 88 156 130 0 33 -27 75 -49 75 -5 0 -15 2
-23 5 -7 2 -49 -16 -93 -42z"/>
<path d="M712 1210 c-22 -13 -32 -26 -28 -35 3 -8 1 -15 -4 -15 -6 0 -10 -7
-10 -16 0 -9 5 -12 12 -8 7 5 8 3 4 -5 -9 -14 21 -51 41 -51 7 0 13 -4 13 -9
0 -5 15 -14 33 -22 17 -7 34 -16 37 -19 15 -18 201 -120 219 -120 28 0 75 46
67 66 -3 9 -1 12 4 9 6 -3 10 -3 10 0 0 11 -34 65 -40 65 -4 0 -32 16 -64 35
-32 19 -63 32 -69 28 -6 -3 -7 -1 -3 5 8 14 -119 86 -135 76 -7 -4 -9 -3 -6 3
8 13 -20 26 -35 16 -7 -3 -8 -1 -4 5 11 18 -5 14 -42 -8z"/>
<path d="M1352 1013 l3 -168 75 1 c49 1 87 7 107 18 39 20 80 89 82 136 0 41
-17 100 -30 100 -5 0 -8 5 -6 11 3 17 -45 49 -89 59 -21 5 -63 10 -92 10 l-52
0 2 -167z m168 112 c8 -5 22 -10 30 -10 8 0 15 -7 16 -15 2 -34 4 -41 12 -37
13 9 1 -97 -15 -129 -18 -36 -55 -52 -128 -56 l-50 -2 -3 123 c-2 68 -1 129 1
135 6 14 112 7 137 -9z"/>
<path d="M4450 1111 c0 -47 -4 -71 -12 -74 -10 -3 -10 -9 -2 -28 25 -54 34
-80 24 -74 -5 3 -10 0 -10 -8 0 -7 -9 -23 -21 -36 -17 -18 -30 -22 -68 -20
-34 3 -46 0 -46 -11 0 -26 52 -33 92 -13 21 10 37 23 36 30 -1 6 5 17 15 25
15 11 16 11 5 -3 -10 -12 -10 -18 0 -29 9 -10 9 -11 0 -6 -8 5 -13 1 -13 -9 0
-10 7 -15 18 -13 15 3 17 20 20 171 2 162 2 167 -18 167 -18 0 -20 -6 -20 -69z"/>
<path d="M5490 1174 c0 -5 -15 -9 -34 -10 -31 0 -94 -38 -95 -57 -1 -5 -8 -15
-16 -23 -28 -29 -22 -123 12 -177 26 -41 88 -76 135 -77 31 0 106 27 126 45
11 10 10 14 -2 24 -12 10 -20 8 -44 -9 -24 -18 -40 -21 -78 -18 -65 6 -76 10
-93 31 -8 11 -20 16 -30 12 -12 -5 -13 -4 -4 6 9 9 9 17 1 32 -24 46 18 169
61 176 38 7 140 7 136 1 -2 -3 5 -11 16 -18 16 -10 21 -10 26 3 3 9 1 21 -6
28 -6 6 -11 8 -11 3 0 -4 -7 0 -16 8 -8 9 -24 16 -34 16 -10 0 -25 3 -34 6 -9
3 -16 2 -16 -2z"/>
<path d="M6040 1010 c0 -147 2 -170 16 -170 8 0 13 4 10 8 -2 4 0 14 5 22 8
13 11 12 20 -3 13 -22 56 -40 72 -30 6 4 20 8 31 8 29 3 69 54 63 81 -2 13 0
21 4 18 5 -3 9 2 9 10 0 9 -5 16 -11 16 -6 0 -8 8 -4 19 10 32 -57 91 -104 91
-12 0 -30 -9 -41 -20 -33 -33 -40 -24 -40 50 0 56 -3 70 -15 70 -13 0 -15 -26
-15 -170z m170 3 c44 -56 10 -143 -56 -143 -24 0 -33 -4 -28 -12 4 -7 3 -8 -5
-4 -6 4 -9 11 -6 16 3 5 -3 11 -13 14 -20 7 -23 17 -25 78 -2 78 85 111 133
51z"/>
<path d="M3870 1111 c0 -24 -4 -31 -20 -31 -13 0 -20 -7 -20 -20 0 -13 7 -20
20 -20 18 0 20 -7 20 -77 0 -43 4 -83 8 -89 22 -34 98 -41 85 -8 -3 8 -8 13
-11 10 -2 -3 -13 -1 -23 4 -14 8 -18 25 -21 85 l-3 75 28 0 c20 0 27 5 27 20
0 15 -7 20 -28 20 -24 0 -28 4 -27 27 0 18 -6 29 -17 31 -14 3 -18 -3 -18 -27z"/>
<path d="M5087 1133 c-4 -3 -7 -17 -7 -30 0 -16 -6 -23 -20 -23 -13 0 -20 -7
-20 -20 0 -13 7 -20 20 -20 18 0 20 -7 20 -78 0 -62 4 -82 18 -95 21 -19 68
-32 75 -20 8 13 -5 30 -28 34 -18 4 -20 13 -23 81 l-3 77 28 3 c37 4 37 32 1
36 -24 3 -28 8 -28 33 0 27 -17 39 -33 22z"/>
<path d="M1750 1069 c0 -6 -7 -9 -15 -5 -8 3 -15 1 -15 -5 0 -6 -4 -8 -9 -4
-5 3 -19 -7 -30 -21 -25 -32 -39 -96 -22 -102 6 -2 9 -8 5 -13 -11 -18 37 -68
76 -79 47 -13 116 9 107 34 -4 11 -1 13 11 9 13 -4 14 -3 6 6 -11 12 -48 5
-40 -8 2 -3 -17 -7 -44 -9 -42 -3 -51 1 -69 24 -31 40 -27 54 17 55 20 1 45 0
56 -1 10 -1 23 4 27 12 7 10 9 10 9 1 0 -7 12 -13 26 -13 25 0 26 2 21 38 -4
22 -17 46 -32 60 -28 24 -51 30 -39 10 4 -7 -2 -5 -13 5 -23 20 -33 22 -33 6z"/>
<path d="M2227 1073 c-19 -3 -27 -9 -23 -18 3 -8 0 -12 -8 -9 -19 7 -47 -31
-53 -74 -9 -69 43 -137 96 -126 20 4 23 3 11 -5 -23 -16 4 -14 47 4 35 15 52
30 53 47 0 4 -12 3 -27 -4 -16 -6 -44 -14 -64 -18 -32 -6 -39 -4 -55 18 -10
13 -24 40 -31 60 -10 31 -10 34 1 20 11 -15 29 -18 100 -18 81 0 86 1 86 21 0
35 -38 86 -72 98 -17 6 -31 10 -32 10 -1 -1 -14 -4 -29 -6z"/>
<path d="M2604 1065 c4 -12 2 -13 -13 -3 -15 9 -24 8 -46 -6 -16 -10 -24 -23
-21 -32 3 -8 0 -13 -7 -11 -7 1 -12 -10 -11 -30 0 -18 -3 -33 -7 -33 -3 0 -4
-11 -1 -25 6 -34 54 -81 88 -88 55 -10 120 25 129 70 2 10 4 18 5 18 1 0 4 12
6 27 6 37 -20 84 -56 103 -37 19 -38 6 -5 -33 15 -18 25 -42 25 -62 0 -22 4
-29 13 -24 6 5 -4 -9 -23 -29 -27 -29 -42 -37 -71 -37 -19 0 -39 3 -43 8 -4 4
-13 7 -18 7 -6 0 -13 7 -15 15 -4 13 -3 13 6 0 6 -8 11 -10 11 -4 0 5 -4 14
-10 20 -12 12 -20 75 -9 68 5 -3 9 2 9 10 0 21 39 46 73 46 25 0 27 2 17 20
-12 23 -35 27 -26 5z"/>
<path d="M2867 1070 c-16 -5 -35 -14 -43 -21 -11 -9 -14 -8 -14 5 0 9 -8 16
-20 16 -19 0 -20 -7 -20 -165 0 -161 1 -165 21 -165 19 0 20 5 17 60 -3 46 0
64 11 73 10 8 13 8 8 1 -4 -7 7 -18 27 -28 40 -19 60 -21 50 -4 -4 7 -3 8 4 4
15 -9 54 12 47 25 -4 5 -1 8 7 7 7 -2 12 5 12 14 -1 10 2 16 6 13 10 -6 20 19
20 51 0 51 -52 118 -83 108 -13 -4 -17 -2 -13 5 8 13 2 13 -37 1z m28 -30 c54
0 88 -95 52 -144 -13 -17 -112 -42 -102 -25 3 4 -2 9 -10 13 -8 3 -15 13 -15
21 0 9 -3 14 -7 12 -5 -3 -6 16 -4 41 2 31 10 52 25 65 11 10 15 15 7 11 -10
-5 -12 -3 -7 5 5 7 15 10 23 7 8 -3 25 -6 38 -6z"/>
<path d="M3114 1069 c-39 -11 -66 -50 -72 -102 -3 -31 -1 -38 9 -32 11 6 11 5
2 -5 -19 -21 5 -57 53 -81 37 -17 49 -19 77 -10 18 6 40 20 50 31 15 18 15 21
2 26 -9 4 -24 -1 -34 -10 -20 -19 -107 -19 -109 -1 0 6 -5 27 -11 49 -7 28 -7
36 2 27 6 -6 46 -11 94 -11 78 0 83 1 83 21 0 67 -76 118 -146 98z"/>
<path d="M4636 1073 c-2 -2 -13 -5 -24 -8 -35 -6 -65 -42 -65 -74 0 -17 -3
-28 -7 -26 -3 2 -4 -10 -2 -28 6 -42 55 -94 96 -100 34 -5 84 12 104 35 18 22
-15 34 -38 13 -9 -8 -32 -15 -52 -15 -37 0 -61 19 -72 58 -7 19 -4 22 23 22
18 0 31 5 31 13 0 9 3 8 9 -2 7 -11 9 -11 14 0 4 10 6 10 6 2 1 -9 18 -13 52
-13 51 0 51 0 44 28 -11 45 -51 89 -85 94 -16 3 -32 3 -34 1z"/>
<path d="M4915 1070 c6 -9 4 -11 -4 -5 -14 8 -63 -14 -56 -25 3 -5 -1 -10 -8
-13 -10 -4 -13 1 -10 17 4 17 0 22 -19 23 -13 0 -18 -1 -13 -3 6 -3 9 -46 7
-114 -3 -95 -2 -110 12 -110 13 0 16 13 16 71 0 70 11 107 37 122 7 5 10 14 6
20 -5 9 -3 9 8 1 8 -6 25 -11 38 -12 13 0 26 -4 30 -7 3 -4 8 -48 11 -98 4
-73 8 -92 20 -92 12 0 16 16 18 69 2 38 0 76 -4 85 -4 9 -6 21 -5 28 2 13 -31
37 -68 48 -18 5 -22 4 -16 -5z"/>
<path d="M6384 1069 c-2 -4 -11 -6 -19 -2 -32 12 -70 -47 -53 -80 11 -22 74
-51 93 -43 8 3 21 -7 30 -21 14 -21 15 -27 3 -39 -25 -25 -65 -24 -91 2 -21
20 -26 22 -36 10 -10 -11 -6 -18 19 -36 16 -12 34 -18 40 -15 5 3 10 1 10 -4
0 -6 7 -11 15 -11 8 0 15 4 15 9 0 5 8 7 18 4 20 -5 49 22 54 52 2 13 -2 19
-11 17 -12 -3 -12 0 -1 12 11 14 8 18 -22 30 -19 8 -46 18 -61 21 -32 8 -51
30 -44 49 7 18 85 26 91 9 3 -7 15 -13 27 -13 l22 0 -22 24 c-23 25 -68 39
-77 25z"/>
<path d="M1903 1058 c39 -98 62 -146 68 -143 4 3 5 -3 2 -13 -2 -10 5 -29 16
-43 17 -21 21 -22 35 -9 8 8 24 40 36 70 12 30 30 76 41 103 18 46 18 47 0 47
-22 0 -54 -70 -44 -96 4 -11 2 -15 -4 -11 -13 8 -38 -57 -28 -73 3 -5 0 -7 -8
-4 -13 4 -20 17 -31 54 -1 3 -12 33 -25 68 -18 47 -28 62 -43 62 -12 0 -18 -5
-15 -12z"/>
<path d="M4012 990 c-2 -44 0 -86 5 -92 4 -7 8 -17 8 -23 0 -5 16 -18 36 -28
40 -19 82 -11 107 20 11 15 12 15 12 -5 0 -13 6 -22 15 -22 8 0 15 5 15 11 0
5 -6 7 -12 3 -10 -6 -10 -4 -2 7 6 8 12 58 13 113 2 77 0 97 -11 94 -9 -3 -15
-31 -18 -86 -3 -45 -11 -87 -17 -93 -14 -14 -105 -30 -97 -17 3 5 1 15 -5 22
-6 7 -11 49 -12 94 -1 69 -4 82 -18 82 -14 0 -17 -13 -19 -80z"/>
<path d="M5780 988 c0 -109 5 -123 48 -144 35 -16 38 -16 74 4 30 16 38 17 38
6 0 -8 9 -14 20 -14 11 0 20 7 20 16 0 9 -5 12 -12 8 -10 -6 -10 -4 0 7 6 7
12 24 12 37 0 16 -4 21 -12 16 -10 -6 -10 -4 0 7 7 7 12 39 12 76 0 56 -2 63
-20 63 -18 0 -20 -7 -20 -78 0 -103 -14 -124 -79 -120 -27 2 -48 7 -48 13 1
133 -4 185 -18 185 -12 0 -15 -16 -15 -82z"/>
<path d="M1856 419 c-11 -11 -21 -36 -23 -58 -2 -33 2 -43 23 -60 31 -24 67
-27 87 -6 8 8 17 11 21 8 3 -3 10 6 16 21 13 34 13 46 0 26 -6 -9 -10 -10 -10
-3 0 6 5 15 12 19 7 5 5 11 -7 21 -12 8 -14 13 -5 13 8 0 4 8 -10 20 -29 25
-79 25 -104 -1z"/>
<path d="M3663 414 c-31 -31 -30 -74 3 -109 22 -23 31 -27 62 -21 39 6 66 31
57 54 -2 7 0 10 5 7 14 -9 12 10 -5 51 -8 20 -19 33 -25 29 -5 -3 -10 -2 -10
3 0 18 -65 8 -87 -14z"/>
<path d="M5348 426 c-10 -7 -15 -16 -11 -19 3 -4 1 -7 -5 -7 -16 0 -13 -80 4
-87 8 -3 11 -9 8 -14 -3 -5 -2 -9 3 -10 4 0 18 -2 31 -5 13 -2 32 1 43 6 11 6
23 8 28 5 17 -10 -1 -43 -30 -55 -24 -10 -33 -10 -53 4 -14 9 -27 12 -30 7 -8
-12 20 -34 33 -27 5 3 11 1 13 -5 5 -14 57 6 74 29 17 21 19 192 3 192 -5 0
-8 -4 -5 -9 10 -15 -18 -19 -32 -4 -17 17 -52 16 -74 -1z"/>
</g>
</svg>
